<svg xmlns="http://www.w3.org/2000/svg" xmlns:xlink="http://www.w3.org/1999/xlink" version="1.1" id="Layer_1" x="0px" y="0px" viewBox="0 0 1000 1000" style="enable-background:new 0 0 1000 1000;" xml:space="preserve">
                        <style type="text/css">
                        	.stf0{fill:#000000;}
                        </style>
                        <rect></rect>
                        <g>
                        	<g>
                        		<path class="stf0" d="M164.18,503.87c-12.51,0-23.77-2.66-33.45-7.89c-9.27-5.01-15.74-11.63-19.79-16.17l-6.04-6.76l16.33-14.84    l6.14,6.91c7.7,8.66,17.48,16.68,36.78,16.68l1.6,0c11.54,0,21.83-3.64,28.25-9.99c4.74-4.68,7.24-10.93,7.24-18.08    c0-8.16-2.85-14.63-8.47-19.23c-6.05-4.95-15.09-7.56-26.16-7.56c-12.61,0-25.36-3.54-34.98-9.7c-5.14-3.29-9.32-7.23-12.41-11.71    c-4.17-6.03-6.28-12.89-6.28-20.37c0-14.04,4.93-25.81,14.27-34.03c9.46-8.34,22.72-12.56,39.42-12.56    c14.83,0,30.66,7.47,38.5,18.16l5.35,7.29l-17.67,13.26l-5.46-7.47c-2.74-3.74-11.69-9.16-20.71-9.16    c-12.18,0-20.94,2.74-26.02,8.14c-3.7,3.93-5.58,9.44-5.58,16.38c0,12.17,16.4,19.71,31.6,19.71c16.39,0,30.41,4.49,40.55,12.97    c10.58,8.86,16.17,21.27,16.17,35.9c0,13.13-4.74,24.76-13.69,33.63c-10.61,10.5-26.56,16.52-43.78,16.52L164.18,503.87z"></path>
                        	</g>
                        	<g>
                        		<path class="stf0" d="M660.01,503.87c-27.55,0-42.58-12.86-52.59-24.06l-6.04-6.76l16.34-14.84l6.14,6.92    c7.7,8.66,17.48,16.67,36.78,16.67l1.59,0c11.53,0,21.83-3.64,28.25-9.99c4.74-4.68,7.24-10.93,7.24-18.08    c0-8.16-2.85-14.63-8.47-19.23c-6.05-4.95-15.09-7.56-26.16-7.56c-12.61,0-25.36-3.54-34.98-9.7c-5.14-3.29-9.31-7.23-12.41-11.71    c-4.17-6.03-6.29-12.88-6.29-20.38c0-14.04,4.93-25.81,14.27-34.03c9.46-8.34,22.72-12.56,39.42-12.56    c14.83,0,30.66,7.47,38.5,18.16l5.35,7.29l-17.68,13.26l-5.46-7.47c-2.74-3.74-11.68-9.16-20.71-9.16    c-12.18,0-20.93,2.74-26.02,8.14c-3.7,3.93-5.58,9.44-5.58,16.38c0,12.17,16.4,19.71,31.6,19.71c16.39,0,30.41,4.49,40.55,12.97    c10.58,8.86,16.17,21.27,16.17,35.9c0,13.13-4.74,24.76-13.7,33.63c-10.45,10.34-27.1,16.52-44.53,16.52L660.01,503.87z"></path>
                        	</g>
                        	<g>
                        		<path class="stf0" d="M875.44,501.84c-5.49-3.23-10.3-7.23-14.31-11.87l-0.97-1.13l-1.18,0.91    c-15.93,12.21-31.51,13.62-41.84,13.62l-1.1-0.01l-0.82,0c-17.19,0-33.13-6.02-43.74-16.52c-8.96-8.87-13.69-20.49-13.69-33.63    c0-14.63,5.59-27.04,16.17-35.9c10.14-8.49,24.16-12.97,40.55-12.97c7.88,0,15.83-2.02,21.83-5.53c4.12-2.41,9.15-6.62,9.71-12.95    l0.01-3.12c-0.74-15.04-11.35-22.62-31.55-22.62c-5.73,0-16.4,3.26-20.71,9.16l-5.46,7.47l-17.67-13.26l5.35-7.29    c7.84-10.69,23.67-18.16,38.5-18.16c16.69,0,29.95,4.23,39.42,12.56c7.88,6.95,12.77,16.33,14.13,27.15l0.03,0.27l0.07,3.69v0.95    c0.02,0.58,0.04,1.25,0.04,1.97c0,0.51-0.01,1.04-0.04,1.61l0,56.57c0,20.09,5.76,32.4,18.67,39.93l8.29,4.84l-5.23,8.04    c-0.7,1.08-1.43,2.2-2.08,3.23l-4.74,7.45L875.44,501.84z M816.93,481.29c17.35,0,26.57-6.69,32-11.73l0.72-0.67l-0.28-0.94    c-2.2-7.49-3.32-15.95-3.32-25.13v-24.01l-2.27,1.09c-8.73,4.21-19.12,6.53-29.28,6.53c-11.07,0-20.12,2.62-26.16,7.56    c-5.62,4.6-8.47,11.07-8.47,19.23c0,7.14,2.5,13.39,7.24,18.08c6.42,6.35,16.7,9.99,28.22,9.99l0.63,0L816.93,481.29z"></path>
                        	</g>
                        	<g>
                        		<path class="stf0" d="M545.67,501.21c-5.49-3.23-10.3-7.23-14.31-11.87l-0.97-1.13l-1.18,0.91    c-15.93,12.21-31.51,13.62-41.84,13.62l-1.1-0.01l-0.83,0c-17.19,0-33.13-6.02-43.74-16.52c-8.96-8.87-13.69-20.49-13.69-33.63    c0-14.63,5.59-27.04,16.17-35.9c10.14-8.49,24.16-12.97,40.55-12.97c7.88,0,15.83-2.02,21.83-5.53c4.12-2.41,9.15-6.62,9.71-12.95    l0.01-3.12c-0.74-15.04-11.35-22.62-31.55-22.62c-5.73,0-16.4,3.26-20.71,9.16l-5.46,7.47l-17.67-13.26l5.35-7.29    c7.84-10.69,23.67-18.16,38.5-18.16c16.69,0,29.95,4.23,39.42,12.56c7.88,6.95,12.77,16.33,14.13,27.15l0.03,0.27l0.07,3.69v0.95    c0.02,0.58,0.04,1.26,0.04,1.97c0,0.51-0.01,1.03-0.04,1.6l0,56.57c0,20.09,5.76,32.4,18.67,39.93l8.29,4.84l-5.23,8.04    c-0.7,1.08-1.43,2.2-2.08,3.23l-4.74,7.45L545.67,501.21z M487.16,480.66c17.35,0,26.57-6.69,32-11.73l0.72-0.67l-0.28-0.94    c-2.21-7.49-3.33-15.94-3.33-25.13v-24.01l-2.27,1.09c-8.73,4.21-19.13,6.53-29.28,6.53c-11.07,0-20.12,2.62-26.16,7.56    c-5.62,4.6-8.48,11.07-8.48,19.23c0,7.14,2.5,13.39,7.24,18.08c6.41,6.35,16.7,9.99,28.22,9.99l0.63,0L487.16,480.66z"></path>
                        	</g>
                        	<g>
                        		<path class="stf0" d="M320.71,503.3l3.86-12.22l-1.04-0.65c-13.15-8.24-22.77-22.11-28.59-41.22l-33.65-107.58h23.65l31.64,101.11    c3.34,10.99,7.63,18.98,13.11,24.44l1.84,1.83l40.22-127.38h23.7L343.84,503.3H320.71z"></path>
                        	</g>
                        </g>
                        <g>
                        	<path class="stf0" d="M257.05,662.58v-89.64h11.98v78.7h42v10.94H257.05z"></path>
                        	<polygon class="stf0" points="448.67,583.88 448.67,572.94 399.65,572.94 399.65,583.88 418.17,583.88 418.17,651.64 399.65,651.64    399.65,662.58 448.67,662.58 448.67,651.64 430.15,651.64 430.15,583.88  "></polygon>
                        	<path class="stf0" d="M554.96,583.88v27.41h34.38v10.81h-34.38v40.48h-11.98v-89.64h53.99v10.94H554.96z"></path>
                        	<path class="stf0" d="M687.75,662.58v-89.64h54.96v10.94h-43.09v27.03h35.95v10.94h-35.95v29.8h43.34v10.94H687.75z"></path>
                        </g>
                        </svg>